<svg width="57" height="44" viewBox="0 0 57 44" fill="none" xmlns="http://www.w3.org/2000/svg">
<g clip-path="url(#clip0)">
<path d="M0 40.235V29.1543H7.45918V31.4135H2.58202V33.5113H7.19022V35.6629H2.58202V37.9579H7.72814V40.2529H0V40.235Z" fill="#2C3C69"/>
<path d="M14.506 40.2349V35.9676C14.506 35.7524 14.4881 35.5373 14.4522 35.34C14.4164 35.1428 14.3626 34.9635 14.2729 34.8201C14.1833 34.6766 14.0757 34.5511 13.9143 34.4615C13.7708 34.3718 13.5736 34.3359 13.3405 34.3359C13.1074 34.3359 12.9102 34.3897 12.7309 34.4615C12.5516 34.5511 12.4081 34.6766 12.3005 34.838C12.1929 34.9994 12.1033 35.1787 12.0495 35.3759C11.9957 35.5731 11.9598 35.7883 11.9598 36.0034V40.2349H9.39575V32.4354H11.8881V33.5112H11.924C12.0136 33.3498 12.1392 33.1884 12.3005 33.0271C12.444 32.8657 12.6233 32.7223 12.8385 32.6147C13.0357 32.5071 13.2688 32.3995 13.5019 32.3278C13.735 32.2561 14.0039 32.2202 14.2729 32.2202C14.7929 32.2202 15.2412 32.3099 15.5998 32.5071C15.9584 32.6864 16.2632 32.9374 16.4784 33.2422C16.7115 33.547 16.8729 33.8877 16.9625 34.2642C17.0701 34.6587 17.106 35.0352 17.106 35.4297V40.2528L14.506 40.2349Z" fill="#2C3C69"/>
<path d="M23.7043 34.9637C23.5609 34.7844 23.3636 34.623 23.1126 34.5155C22.8616 34.4079 22.6106 34.3362 22.3416 34.3362C22.0726 34.3362 21.8216 34.39 21.6064 34.4975C21.3913 34.6051 21.194 34.7486 21.0506 34.9278C20.8892 35.1071 20.7637 35.3223 20.674 35.5554C20.5844 35.7885 20.5485 36.0574 20.5485 36.3264C20.5485 36.5953 20.5844 36.8463 20.674 37.0974C20.7637 37.3305 20.8713 37.5456 21.0506 37.7249C21.212 37.9042 21.4092 38.0477 21.6244 38.1552C21.8575 38.2628 22.1085 38.3166 22.3775 38.3166C22.6464 38.3166 22.8974 38.2628 23.1485 38.1732C23.3995 38.0835 23.6147 37.9221 23.7581 37.7428L25.1746 39.482C24.8519 39.7869 24.4395 40.0379 23.9195 40.2172C23.3995 40.3965 22.8616 40.4861 22.2878 40.4861C21.6782 40.4861 21.1044 40.3965 20.5665 40.1992C20.0285 40.0199 19.5623 39.7331 19.1679 39.3745C18.7734 39.0159 18.4686 38.5856 18.2355 38.0656C18.0024 37.5456 17.8948 36.9719 17.8948 36.3264C17.8948 35.6809 18.0024 35.1071 18.2355 34.6051C18.4686 34.0851 18.7734 33.6548 19.1679 33.2962C19.5623 32.9376 20.0285 32.6507 20.5665 32.4715C21.1044 32.2742 21.6782 32.1846 22.2699 32.1846C22.5568 32.1846 22.8257 32.2025 23.1126 32.2563C23.3816 32.3101 23.6505 32.3818 23.9195 32.4715C24.1705 32.5611 24.4036 32.6687 24.6188 32.7942C24.834 32.9197 25.0133 33.0631 25.1746 33.2245L23.7043 34.9637Z" fill="#2C3C69"/>
<path d="M31.2354 34.5511C31.1278 34.5152 31.0023 34.4973 30.8947 34.4973C30.7871 34.4794 30.6796 34.4794 30.572 34.4794C30.2313 34.4794 29.9444 34.5511 29.7113 34.6587C29.4782 34.7842 29.281 34.9276 29.1555 35.1069C29.012 35.2862 28.9044 35.4835 28.8506 35.6807C28.7968 35.8958 28.761 36.0751 28.761 36.2186V40.217H26.179V32.4533H28.6534V33.5829H28.6893C28.8865 33.1884 29.1734 32.8657 29.532 32.5967C29.8906 32.3457 30.321 32.2202 30.8051 32.2202C30.9127 32.2202 31.0023 32.2202 31.1099 32.2381C31.2175 32.2561 31.2892 32.2561 31.3609 32.2919L31.2354 34.5511Z" fill="#2C3C69"/>
<path d="M37.2599 41.4184C37.0986 41.8308 36.9372 42.1894 36.7399 42.5122C36.5427 42.8349 36.3096 43.1039 36.0586 43.319C35.7896 43.5521 35.4848 43.7135 35.1262 43.821C34.7676 43.9286 34.3372 44.0003 33.8531 44.0003C33.62 44.0003 33.369 43.9824 33.1179 43.9466C32.8669 43.9107 32.6338 43.8748 32.4545 43.821L32.7414 41.6515C32.8669 41.6874 33.0104 41.7232 33.1538 41.7591C33.2972 41.777 33.4407 41.795 33.5662 41.795C33.9607 41.795 34.2476 41.7053 34.4269 41.526C34.6062 41.3467 34.7496 41.0778 34.8752 40.755L35.1262 40.1096L31.8628 32.4355H34.7138L36.4531 37.438H36.5068L38.0489 32.4355H40.7744L37.2599 41.4184Z" fill="#2C3C69"/>
<path d="M50.1165 36.3081C50.1165 36.846 50.0268 37.366 49.8654 37.868C49.7041 38.37 49.453 38.8183 49.1303 39.1948C48.8075 39.5713 48.431 39.8761 47.9648 40.1092C47.4986 40.3423 46.9786 40.4499 46.4048 40.4499C45.9207 40.4499 45.4724 40.3603 45.0421 40.163C44.6117 39.9658 44.289 39.7148 44.0379 39.3741H44.0021V44H41.438V32.4352H43.8766V33.3855H43.9304C44.1635 33.0807 44.5041 32.7938 44.9165 32.5607C45.3469 32.3277 45.831 32.2021 46.4048 32.2021C46.9606 32.2021 47.4806 32.3097 47.9468 32.5249C48.413 32.74 48.7896 33.0449 49.1123 33.4214C49.4351 33.7979 49.6682 34.2282 49.8475 34.7303C50.0268 35.2502 50.1165 35.7702 50.1165 36.3081ZM47.6241 36.3081C47.6241 36.0571 47.5882 35.8061 47.4986 35.573C47.4268 35.3399 47.3013 35.1247 47.1579 34.9454C47.0144 34.7661 46.8172 34.6227 46.5841 34.4972C46.351 34.3896 46.082 34.3179 45.7772 34.3179C45.4903 34.3179 45.2214 34.3717 44.9883 34.4972C44.7552 34.6048 44.5579 34.7661 44.3966 34.9454C44.2352 35.1247 44.1097 35.3399 44.02 35.5909C43.9304 35.824 43.8945 36.075 43.8945 36.326C43.8945 36.577 43.9304 36.8281 44.02 37.0612C44.1097 37.2942 44.2352 37.5094 44.3966 37.7066C44.5579 37.8859 44.7552 38.0473 44.9883 38.1549C45.2214 38.2625 45.4724 38.3342 45.7772 38.3342C46.082 38.3342 46.351 38.2804 46.5841 38.1549C46.8172 38.0473 46.9965 37.8859 47.1579 37.7066C47.3013 37.5273 47.4268 37.2942 47.4986 37.0612C47.5882 36.8101 47.6241 36.5591 47.6241 36.3081Z" fill="#2C3C69"/>
<path d="M54.2044 34.3541V37.3484C54.2044 37.707 54.2761 37.9939 54.4196 38.1732C54.563 38.3525 54.8141 38.4421 55.1727 38.4421C55.2982 38.4421 55.4237 38.4242 55.5671 38.4063C55.7106 38.3883 55.8182 38.3525 55.9258 38.3166L55.9616 40.1993C55.7823 40.2531 55.5671 40.3248 55.2803 40.3606C55.0113 40.4144 54.7423 40.4324 54.4734 40.4324C53.9534 40.4324 53.5051 40.3606 53.1644 40.2351C52.8058 40.1096 52.5189 39.9124 52.3038 39.6614C52.0886 39.4103 51.9272 39.1235 51.8376 38.7828C51.7479 38.4421 51.6941 38.0656 51.6941 37.6532V34.3541H50.439V32.4356H51.6762V30.3916H54.2044V32.4356H56.0333V34.3541H54.2044Z" fill="#2C3C69"/>
<path d="M0 27.4327V16.3521H2.68961V25.1018H6.99298V27.4327H0Z" fill="#2C3C69"/>
<path d="M15.8687 23.6321C15.8687 23.7396 15.8687 23.8472 15.8687 23.9369C15.8687 24.0445 15.8687 24.1341 15.8508 24.2417H10.1846C10.2026 24.4568 10.2743 24.6541 10.3819 24.8334C10.4895 25.0127 10.6329 25.1561 10.8122 25.2995C10.9915 25.4251 11.1708 25.5326 11.386 25.6044C11.6012 25.6761 11.8163 25.7119 12.0494 25.7119C12.4618 25.7119 12.8025 25.6402 13.0894 25.4788C13.3763 25.3354 13.6094 25.1382 13.7708 24.8872L15.5639 26.0167C15.2053 26.5546 14.7211 26.967 14.1115 27.2539C13.5198 27.5408 12.8205 27.6842 12.0136 27.6842C11.4219 27.6842 10.8839 27.5946 10.346 27.4153C9.82603 27.236 9.35983 26.967 8.98329 26.6084C8.58881 26.2678 8.28399 25.8195 8.05089 25.3175C7.81779 24.7975 7.71021 24.2238 7.71021 23.5603C7.71021 22.9149 7.81779 22.3411 8.03296 21.8211C8.24813 21.3012 8.55295 20.8709 8.92949 20.5123C9.30604 20.1537 9.75431 19.8668 10.2564 19.6696C10.7764 19.4723 11.3143 19.3647 11.9239 19.3647C12.4977 19.3647 13.0177 19.4544 13.5018 19.6516C13.986 19.8489 14.3984 20.1178 14.7391 20.4943C15.0797 20.8529 15.3487 21.3012 15.5459 21.8211C15.7611 22.359 15.8687 22.9687 15.8687 23.6321ZM13.5018 22.6459C13.5018 22.2335 13.3763 21.8929 13.1253 21.5881C12.8743 21.3012 12.4798 21.1577 11.9777 21.1577C11.7267 21.1577 11.4936 21.1936 11.2964 21.2832C11.0812 21.355 10.9019 21.4625 10.7405 21.606C10.5791 21.7494 10.4536 21.8929 10.364 22.0901C10.2743 22.2694 10.2205 22.4666 10.2026 22.6638C10.1846 22.6459 13.5018 22.6459 13.5018 22.6459Z" fill="#2C3C69"/>
<path d="M19.9569 21.5519V24.5462C19.9569 24.9048 20.0286 25.1916 20.172 25.3709C20.3155 25.5502 20.5665 25.6399 20.9251 25.6399C21.0506 25.6399 21.1761 25.622 21.3196 25.604C21.463 25.5861 21.5706 25.5502 21.6782 25.5144L21.7141 27.397C21.5348 27.4508 21.3196 27.5225 21.0327 27.5584C20.7637 27.6122 20.4948 27.6301 20.2258 27.6301C19.7058 27.6301 19.2576 27.5584 18.9169 27.4329C18.5583 27.3074 18.2714 27.1101 18.0562 26.8591C17.841 26.6081 17.6797 26.3212 17.59 25.9806C17.5003 25.6399 17.4466 25.2634 17.4466 24.851V21.5519H16.1914V19.6334H17.4286V17.5894H19.9569V19.6334H21.7858V21.5519H19.9569Z" fill="#2C3C69"/>
<path d="M30.1058 21.9467C29.8906 21.7494 29.6575 21.5881 29.3706 21.4446C29.0837 21.3012 28.7968 21.2474 28.4741 21.2474C28.241 21.2474 28.0079 21.3012 27.8106 21.3908C27.6134 21.4805 27.5058 21.6418 27.5058 21.8749C27.5058 22.0901 27.6134 22.2515 27.8465 22.3411C28.0796 22.4308 28.4382 22.5383 28.9403 22.6459C29.2271 22.7176 29.532 22.7894 29.8189 22.9149C30.1237 23.0224 30.3926 23.1838 30.6257 23.3631C30.8588 23.5424 31.0561 23.7755 31.1995 24.0445C31.343 24.3134 31.4147 24.6361 31.4147 25.0127C31.4147 25.4968 31.3071 25.9271 31.1099 26.2498C30.9126 26.5905 30.6616 26.8594 30.3389 27.0746C30.0161 27.2898 29.6575 27.4332 29.263 27.5229C28.8685 27.6125 28.4741 27.6663 28.0796 27.6663C27.4341 27.6663 26.8244 27.5587 26.2148 27.3615C25.6051 27.1643 25.1031 26.8594 24.6907 26.465L26.1251 24.9409C26.3582 25.192 26.6451 25.4071 26.9679 25.5685C27.3086 25.7299 27.6492 25.8195 28.0258 25.8195C28.241 25.8195 28.4382 25.7657 28.6354 25.6761C28.8327 25.5685 28.9403 25.4071 28.9403 25.1561C28.9403 24.923 28.8147 24.7437 28.5637 24.6182C28.3127 24.5106 27.9182 24.3851 27.3803 24.2596C27.1113 24.2058 26.8424 24.1162 26.5734 24.0086C26.3044 23.901 26.0534 23.7576 25.8382 23.5783C25.6231 23.399 25.4438 23.1838 25.3182 22.9149C25.1748 22.6459 25.121 22.3411 25.121 21.9825C25.121 21.5163 25.2286 21.1219 25.4258 20.7812C25.6231 20.4585 25.8741 20.1895 26.1969 19.9744C26.5017 19.7592 26.8603 19.6158 27.2368 19.5082C27.6134 19.4006 27.9899 19.3647 28.3665 19.3647C28.9582 19.3647 29.514 19.4544 30.0878 19.6337C30.6437 19.813 31.1278 20.0819 31.5043 20.4585L30.1058 21.9467Z" fill="#2C3C69"/>
<path d="M24.1526 16.1372C23.3816 16.1372 22.772 16.693 22.772 17.4102C22.772 18.1633 23.274 18.6653 24.0451 18.6653C24.1168 18.6653 24.1706 18.6653 24.2244 18.6474C24.0988 19.2032 23.5789 19.5977 23.0589 19.6694L22.9513 19.6873V20.8707L23.0768 20.8528C23.6864 20.799 24.2961 20.5121 24.7264 20.0997C25.3002 19.5439 25.605 18.737 25.605 17.7868C25.623 16.8185 25.0133 16.1372 24.1526 16.1372Z" fill="#2C3C69"/>
<path d="M49.3633 14.7922H46.0641V13.0889C46.0641 11.7262 44.9524 10.6325 43.6076 10.6325C42.2628 10.6325 41.1511 11.7441 41.1511 13.0889V14.7922H37.8518V13.0889C37.8518 9.91527 40.4338 7.31543 43.6255 7.31543C46.8172 7.31543 49.3992 9.89734 49.3992 13.0889L49.3633 14.7922Z" fill="#F9A11D"/>
<path d="M50.6902 14.7925H36.489C35.8794 14.7925 35.3953 15.2945 35.3953 15.8862V26.3931C35.3953 27.0027 35.8973 27.4869 36.489 27.4869H50.6902C51.2998 27.4869 51.7839 26.9848 51.7839 26.3931V15.9041C51.8019 15.2945 51.2998 14.7925 50.6902 14.7925ZM44.3068 21.6955V23.112C44.3068 23.5064 43.9841 23.8292 43.5896 23.8292C43.1951 23.8292 42.8724 23.5064 42.8724 23.112V21.6955C42.4241 21.4445 42.1372 20.9783 42.1372 20.4225C42.1372 19.6156 42.8007 18.9522 43.6075 18.9522C44.4144 18.9522 45.0779 19.6156 45.0779 20.4225C45.0599 20.9604 44.7551 21.4445 44.3068 21.6955Z" fill="#2C3C69"/>
<path d="M35.0546 13.2323H31.6299C31.074 13.2323 30.6257 12.784 30.6257 12.2282C30.6257 11.6724 31.074 11.2241 31.6299 11.2241H35.0546C35.6105 11.2241 36.0587 11.6724 36.0587 12.2282C36.0587 12.784 35.6105 13.2323 35.0546 13.2323Z" fill="#F9A11D"/>
<path d="M37.4574 7.83559C37.2243 7.83559 37.0091 7.76387 36.8119 7.6025L34.1044 5.3792C33.674 5.0206 33.6202 4.39305 33.9609 3.96273C34.3195 3.53242 34.9471 3.47863 35.3774 3.81929L38.085 6.0426C38.5153 6.4012 38.5691 7.02875 38.2284 7.45906C38.0491 7.71008 37.7443 7.83559 37.4574 7.83559Z" fill="#F9A11D"/>
<path d="M43.5896 5.46862C43.0337 5.46862 42.5854 5.02038 42.5854 4.46455V1.00408C42.5854 0.448248 43.0337 0 43.5896 0C44.1454 0 44.5937 0.448248 44.5937 1.00408V4.46455C44.5937 5.02038 44.1454 5.46862 43.5896 5.46862Z" fill="#F9A11D"/>
<path d="M49.7221 7.83539C49.4352 7.83539 49.1483 7.70989 48.951 7.4768C48.5924 7.04648 48.6642 6.41893 49.0945 6.06033L51.802 3.83702C52.2324 3.47843 52.8599 3.55015 53.2186 3.98046C53.5772 4.41078 53.5054 5.03833 53.0751 5.39693L50.3676 7.62024C50.1703 7.76368 49.9372 7.83539 49.7221 7.83539Z" fill="#F9A11D"/>
<path d="M55.5673 13.2323H52.1067C51.5508 13.2323 51.1025 12.784 51.1025 12.2282C51.1025 11.6724 51.5508 11.2241 52.1067 11.2241H55.5673C56.1231 11.2241 56.5714 11.6724 56.5714 12.2282C56.5714 12.784 56.1231 13.2323 55.5673 13.2323Z" fill="#F9A11D"/>
</g>
<defs>
<clipPath id="clip0">
<rect width="56.5714" height="44" fill="white"/>
</clipPath>
</defs>
</svg>
